<svg width="318" height="318" viewBox="0 0 318 318" fill="none" xmlns="http://www.w3.org/2000/svg">
<path d="M199.638 23.4623L191.335 46.2743L194.371 47.379L197.917 37.6344L205.33 40.3323C206.075 40.6036 206.629 40.9378 206.991 41.3349C207.361 41.7107 207.614 42.1407 207.752 42.6249C207.897 43.0877 207.94 43.598 207.882 44.1557C207.831 44.6921 207.748 45.2528 207.632 45.8376C207.537 46.4301 207.395 47.0178 207.207 47.6007C207.019 48.1835 206.843 48.7344 206.678 49.2533C206.521 49.751 206.401 50.2138 206.317 50.6417C206.255 51.0774 206.288 51.4512 206.416 51.763L209.802 52.9957C209.622 52.496 209.536 51.9702 209.544 51.4183C209.581 50.8528 209.658 50.2777 209.774 49.6929C209.891 49.1081 210.043 48.5243 210.231 47.9414C210.419 47.3586 210.592 46.7825 210.751 46.2132C210.889 45.6361 210.987 45.0688 211.045 44.5111C211.125 43.9611 211.11 43.4373 211.002 42.9395C210.923 42.4283 210.724 41.946 210.407 41.4928C210.111 41.0473 209.656 40.6405 209.042 40.2723L209.065 40.2084C210.589 40.329 211.85 39.9798 212.848 39.1609C213.867 38.3498 214.628 37.252 215.132 35.8675C215.806 34.0145 215.72 32.3306 214.872 30.816C214.046 29.3091 212.546 28.1603 210.373 27.3695L199.638 23.4623ZM205.174 37.3809L198.848 35.0784L201.743 27.123L209.283 29.8674C210.71 30.3868 211.612 31.1249 211.987 32.0816C212.363 33.0384 212.341 34.0919 211.922 35.2421C211.62 36.0727 211.223 36.7001 210.731 37.124C210.268 37.5344 209.733 37.8102 209.127 37.9514C208.55 38.0791 207.922 38.0798 207.245 37.9538C206.567 37.8277 205.877 37.6367 205.174 37.3809Z" fill="white"/>
<path d="M244.496 46.3489L228.892 64.9454L241.81 75.7854L243.559 73.7017L233.114 64.938L238.512 58.5047L248.175 66.6128L249.924 64.5292L240.261 56.4211L245.222 50.5087L255.588 59.207L257.336 57.1233L244.496 46.3489Z" fill="white"/>
<path d="M266.876 91.8581L278.739 89.7599L278.773 89.8188L270.99 98.9837L266.876 91.8581ZM280.421 86.8257L254.671 90.778L256.32 93.6341L264.011 92.3347L269.145 101.227L264.14 107.179L265.925 110.27L282.206 89.9174L280.421 86.8257Z" fill="white"/>
<path d="M296.909 127.776L273.002 131.992L275.795 147.829L278.474 147.357L276.242 134.7L297.47 130.957L296.909 127.776Z" fill="white"/>
<path d="M299.27 176.841L275.363 172.626L272.57 188.464L275.249 188.936L277.481 176.279L298.709 180.022L299.27 176.841Z" fill="white"/>
<path d="M268.053 223.901L275.838 239.113L277.674 235.933L271.216 223.999L284.865 223.478L286.786 220.151L269.668 221.103L261.071 216.139L259.456 218.937L268.053 223.901Z" fill="white"/>
<path d="M191.776 274.785L189.942 272.232L188.025 272.93L192.398 284.943L202.398 281.303L201.467 278.747L194.183 281.398C193.761 280.37 193.542 279.34 193.528 278.308C193.522 277.297 193.715 276.334 194.106 275.42C194.483 274.535 195.06 273.734 195.836 273.017C196.613 272.301 197.597 271.725 198.79 271.291C200.068 270.826 201.286 270.66 202.444 270.793C203.589 270.956 204.642 271.332 205.605 271.922C206.575 272.534 207.428 273.321 208.165 274.283C208.909 275.267 209.498 276.355 209.932 277.548C210.374 278.762 210.655 279.998 210.775 281.257C210.903 282.537 210.821 283.737 210.529 284.856C210.224 286.005 209.682 287.034 208.904 287.944C208.104 288.863 207.012 289.574 205.628 290.078C204.776 290.388 203.938 290.572 203.115 290.63C202.279 290.718 201.488 290.667 200.745 290.48C200.001 290.292 199.311 289.953 198.673 289.461C198.044 288.99 197.496 288.346 197.029 287.527L193.993 288.631C194.695 289.896 195.514 290.888 196.452 291.608C197.376 292.357 198.387 292.882 199.485 293.182C200.562 293.489 201.704 293.58 202.913 293.454C204.107 293.357 205.323 293.083 206.558 292.633C208.368 291.975 209.831 291.056 210.946 289.878C212.048 288.73 212.851 287.424 213.356 285.962C213.84 284.508 214.041 282.939 213.959 281.256C213.864 279.602 213.514 277.945 212.909 276.283C212.366 274.792 211.598 273.444 210.604 272.238C209.61 271.031 208.451 270.066 207.126 269.342C205.801 268.619 204.352 268.181 202.777 268.031C201.211 267.901 199.575 268.147 197.871 268.767C196.529 269.256 195.291 269.996 194.157 270.988C193.03 272.001 192.236 273.266 191.776 274.785Z" fill="white"/>
<path d="M166.5 288.138C166.5 289.362 166.341 290.563 166.024 291.742C165.706 292.943 165.208 294.02 164.528 294.972C163.848 295.924 162.975 296.683 161.91 297.25C160.844 297.839 159.575 298.134 158.102 298.134C156.628 298.134 155.359 297.839 154.294 297.25C153.228 296.683 152.356 295.924 151.676 294.972C150.996 294.02 150.497 292.943 150.18 291.742C149.862 290.563 149.704 289.362 149.704 288.138C149.704 286.914 149.862 285.701 150.18 284.5C150.497 283.321 150.996 282.256 151.676 281.304C152.356 280.352 153.228 279.581 154.294 278.992C155.359 278.425 156.628 278.142 158.102 278.142C159.575 278.142 160.844 278.425 161.91 278.992C162.975 279.581 163.848 280.352 164.528 281.304C165.208 282.256 165.706 283.321 166.024 284.5C166.341 285.701 166.5 286.914 166.5 288.138ZM169.73 288.138C169.73 286.483 169.492 284.885 169.016 283.344C168.517 281.825 167.78 280.477 166.806 279.298C165.831 278.119 164.618 277.179 163.168 276.476C161.717 275.796 160.028 275.456 158.102 275.456C156.175 275.456 154.486 275.796 153.036 276.476C151.585 277.179 150.372 278.119 149.398 279.298C148.423 280.477 147.698 281.825 147.222 283.344C146.723 284.885 146.474 286.483 146.474 288.138C146.474 289.793 146.723 291.379 147.222 292.898C147.698 294.439 148.423 295.799 149.398 296.978C150.372 298.157 151.585 299.097 153.036 299.8C154.486 300.503 156.175 300.854 158.102 300.854C160.028 300.854 161.717 300.503 163.168 299.8C164.618 299.097 165.831 298.157 166.806 296.978C167.78 295.799 168.517 294.439 169.016 292.898C169.492 291.379 169.73 289.793 169.73 288.138Z" fill="white"/>
<path d="M121.877 282.929C121.459 284.079 120.899 285.153 120.197 286.152C119.488 287.173 118.652 288.014 117.687 288.676C116.722 289.338 115.643 289.753 114.448 289.921C113.245 290.111 111.951 289.953 110.567 289.449C109.182 288.946 108.09 288.235 107.291 287.316C106.484 286.42 105.923 285.407 105.61 284.28C105.297 283.153 105.196 281.971 105.309 280.733C105.414 279.517 105.676 278.334 106.094 277.184C106.513 276.034 107.077 274.949 107.786 273.928C108.487 272.929 109.32 272.099 110.285 271.437C111.249 270.775 112.333 270.349 113.536 270.159C114.73 269.991 116.02 270.159 117.405 270.663C118.789 271.167 119.885 271.867 120.692 272.764C121.492 273.682 122.048 274.705 122.362 275.832C122.675 276.959 122.779 278.131 122.674 279.347C122.562 280.585 122.296 281.778 121.877 282.929ZM124.913 284.033C125.478 282.478 125.801 280.895 125.881 279.284C125.932 277.687 125.701 276.167 125.188 274.726C124.676 273.285 123.858 271.987 122.735 270.83C121.604 269.695 120.134 268.798 118.323 268.139C116.513 267.48 114.81 267.222 113.214 267.365C111.61 267.529 110.149 267.998 108.83 268.772C107.511 269.547 106.368 270.566 105.402 271.83C104.406 273.108 103.625 274.524 103.059 276.079C102.493 277.634 102.185 279.21 102.134 280.808C102.054 282.419 102.271 283.945 102.783 285.386C103.296 286.827 104.114 288.126 105.237 289.282C106.36 290.439 107.826 291.346 109.637 292.005C111.447 292.664 113.154 292.912 114.758 292.748C116.361 292.584 117.822 292.114 119.141 291.34C120.46 290.566 121.618 289.54 122.614 288.262C123.58 286.998 124.347 285.588 124.913 284.033Z" fill="white"/>
<path d="M86.0137 254.075L73.9062 268.505L69.7389 265.008C68.5929 264.046 67.7676 263.073 67.2631 262.087C66.7439 261.119 66.5036 260.118 66.5419 259.085C66.5483 258.055 66.8188 257.01 67.3535 255.949C67.8563 254.892 68.5739 253.807 69.5064 252.696C70.468 251.55 71.4127 250.671 72.3406 250.059C73.2366 249.45 74.0927 249.029 74.909 248.796C75.7253 248.564 76.499 248.488 77.2301 248.569C77.9438 248.636 78.6079 248.779 79.2224 248.998C79.8223 249.235 80.3525 249.503 80.813 249.8C81.2588 250.115 81.6207 250.389 81.8985 250.622L86.0137 254.075ZM74.6321 272.665L90.2364 254.068L83.8553 248.714C82.3099 247.417 80.7908 246.512 79.2979 245.999C77.805 245.486 76.3515 245.332 74.9375 245.536C73.5088 245.757 72.1182 246.322 70.7656 247.228C69.3985 248.152 68.0592 249.396 66.748 250.958C64.2419 253.945 63.1497 256.816 63.4712 259.571C63.7927 262.326 65.3859 264.906 68.2509 267.31L74.6321 272.665Z" fill="white"/>
<path d="M43.2735 176.69L17.8667 172.4L18.4512 175.715L40.3937 178.958L40.4055 179.025L20.8837 189.51L21.4859 192.926L43.9112 180.306L43.2735 176.69Z" fill="white"/>
<path d="M19.6989 135.212L43.6061 139.428L44.1669 136.247L20.2597 132.031L19.6989 135.212Z" fill="white"/>
<path d="M52.6621 103.672L36.3497 94.2535L39.0697 89.5424C39.8177 88.2468 40.6331 87.265 41.5161 86.597C42.3794 85.9176 43.3231 85.5072 44.3471 85.3655C45.3628 85.1929 46.4393 85.2778 47.5764 85.6203C48.7052 85.9318 49.8978 86.4502 51.1541 87.1755C52.4497 87.9235 53.4794 88.7012 54.2434 89.5087C54.999 90.2852 55.5621 91.0553 55.9326 91.8188C56.3032 92.5824 56.5121 93.3312 56.5594 94.0652C56.6181 94.7796 56.5926 95.4584 56.4829 96.1018C56.3535 96.7338 56.1823 97.3023 55.9692 97.8075C55.7365 98.3012 55.5294 98.7052 55.3481 99.0193L52.6621 103.672ZM32.3791 95.6908L53.4027 107.829L57.5677 100.615C58.5764 98.8678 59.2037 97.2146 59.4496 95.6553C59.6955 94.096 59.5952 92.6378 59.1485 91.2807C58.6823 89.9123 57.8853 88.6407 56.7575 87.4661C55.6101 86.2802 54.153 85.1772 52.3863 84.1572C49.01 82.2079 45.993 81.6308 43.3354 82.4258C40.6779 83.2209 38.4141 85.2379 36.5441 88.4768L32.3791 95.6908Z" fill="white"/>
<path d="M62.8752 55.2023L78.4795 73.7988L91.398 62.9588L89.6497 60.8752L79.2054 69.639L73.8073 63.2057L83.4702 55.0976L81.7218 53.014L72.0589 61.1221L67.0979 55.2098L77.464 46.5116L75.7156 44.4279L62.8752 55.2023Z" fill="white"/>
<path d="M107.707 40.2285C107.289 39.0783 107.027 37.8952 106.922 36.6791C106.809 35.4416 106.909 34.2594 107.223 33.1322C107.536 32.005 108.097 30.993 108.904 30.0962C109.703 29.178 110.795 28.467 112.18 27.9631C113.564 27.4592 114.858 27.3019 116.061 27.4913C117.255 27.6595 118.335 28.0745 119.3 28.7365C120.264 29.3986 121.101 30.2397 121.81 31.2601C122.512 32.2591 123.072 33.3338 123.49 34.4839C123.909 35.6341 124.175 36.8279 124.287 38.0653C124.392 39.2815 124.288 40.4531 123.975 41.5803C123.661 42.7074 123.105 43.7301 122.305 44.6482C121.498 45.5451 120.402 46.2455 119.018 46.7494C117.633 47.2533 116.343 47.4212 115.148 47.2531C113.946 47.0636 112.862 46.6379 111.898 45.9759C110.933 45.3139 110.1 44.4834 109.399 43.4843C108.69 42.464 108.126 41.3787 107.707 40.2285ZM104.672 41.3332C105.238 42.8881 106.008 44.3083 106.983 45.5939C107.971 46.8505 109.124 47.8658 110.443 48.6401C111.762 49.4143 113.223 49.8835 114.827 50.0476C116.423 50.1904 118.126 49.9324 119.936 49.2734C121.747 48.6145 123.217 47.7174 124.348 46.5823C125.471 45.4258 126.289 44.1271 126.801 42.6862C127.314 41.2452 127.534 39.7298 127.462 38.1399C127.404 36.521 127.091 34.9341 126.525 33.3792C125.96 31.8243 125.183 30.4186 124.195 29.1621C123.22 27.8765 122.073 26.8466 120.754 26.0724C119.435 25.2982 117.974 24.829 116.371 24.6649C114.767 24.5007 113.06 24.7481 111.25 25.4071C109.439 26.0661 107.972 26.9738 106.85 28.1302C105.727 29.2867 104.909 30.5854 104.396 32.0263C103.883 33.4672 103.656 34.9972 103.715 36.6161C103.787 38.206 104.106 39.7784 104.672 41.3332Z" fill="white"/>
</svg>
