<svg width="1222" height="1222" viewBox="0 0 1222 1222" fill="none" xmlns="http://www.w3.org/2000/svg">
<mask id="path-1-inside-1_811_40" fill="white">
<path fill-rule="evenodd" clip-rule="evenodd" d="M-3.90844e-06 1132.59C-1.74987e-06 1181.97 40.0323 1222 89.4146 1222L1132.59 1222C1181.97 1222 1222 1181.97 1222 1132.59L1222 89.4146C1222 40.0323 1181.97 -5.16654e-05 1132.59 -4.95069e-05L89.4146 -3.90844e-06C40.0322 -1.74987e-06 -5.16654e-05 40.0323 -4.95069e-05 89.4147L-3.90844e-06 1132.59ZM1105.62 611C1105.62 337.829 884.171 116.381 611 116.381C337.83 116.381 116.381 337.829 116.381 611C116.381 884.17 337.83 1105.62 611 1105.62C884.171 1105.62 1105.62 884.17 1105.62 611Z"/>
</mask>
<path d="M89.4146 1222L89.4146 1221L89.4146 1222ZM-3.90844e-06 1132.59L-1 1132.59L-3.90844e-06 1132.59ZM1132.59 1222L1132.59 1223L1132.59 1222ZM1222 1132.59L1223 1132.59L1222 1132.59ZM1222 89.4146L1221 89.4146L1222 89.4146ZM-4.95069e-05 89.4147L0.99995 89.4147L-4.95069e-05 89.4147ZM89.4146 1221C40.5846 1221 0.999998 1181.42 0.999996 1132.59L-1 1132.59C-1 1182.52 39.48 1223 89.4146 1223L89.4146 1221ZM1132.59 1221L89.4146 1221L89.4146 1223L1132.59 1223L1132.59 1221ZM1221 1132.59C1221 1181.42 1181.42 1221 1132.59 1221L1132.59 1223C1182.52 1223 1223 1182.52 1223 1132.59L1221 1132.59ZM1221 89.4146L1221 1132.59L1223 1132.59L1223 89.4146L1221 89.4146ZM1132.59 0.99995C1181.42 0.999948 1221 40.5846 1221 89.4146L1223 89.4146C1223 39.48 1182.52 -1.00005 1132.59 -1.00005L1132.59 0.99995ZM89.4146 0.999996L1132.59 0.99995L1132.59 -1.00005L89.4146 -1L89.4146 0.999996ZM0.99995 89.4147C0.999948 40.5846 40.5845 0.999998 89.4146 0.999996L89.4146 -1C39.48 -1 -1.00005 39.4801 -1.00005 89.4147L0.99995 89.4147ZM0.999996 1132.59L0.99995 89.4147L-1.00005 89.4147L-1 1132.59L0.999996 1132.59ZM611 117.381C883.619 117.381 1104.62 338.381 1104.62 611L1106.62 611C1106.62 337.277 884.723 115.381 611 115.381L611 117.381ZM117.381 611C117.381 338.381 338.382 117.381 611 117.381L611 115.381C337.277 115.381 115.381 337.277 115.381 611L117.381 611ZM611 1104.62C338.382 1104.62 117.381 883.618 117.381 611L115.381 611C115.381 884.722 337.278 1106.62 611 1106.62L611 1104.62ZM1104.62 611C1104.62 883.618 883.619 1104.62 611 1104.62L611 1106.62C884.723 1106.62 1106.62 884.722 1106.62 611L1104.62 611Z" fill="white" mask="url(#path-1-inside-1_811_40)"/>
</svg>
